<?xml version="1.0" encoding="utf-8"?>
<!-- Generator: Adobe Illustrator 26.2.1, SVG Export Plug-In . SVG Version: 6.00 Build 0)  -->
<svg version="1.1" id="Ebene_1" xmlns="http://www.w3.org/2000/svg" xmlns:xlink="http://www.w3.org/1999/xlink" x="0px" y="0px"
	 viewBox="0 0 74.9 74.9" style="enable-background:new 0 0 74.9 74.9;" xml:space="preserve">
<style type="text/css">
	.st0{fill:#020203;}
</style>
<g>
	<g>
		<path class="st0" d="M57.5,32.5c0-4.8-3.9-8.8-8.8-8.8H26.2c-4.8,0-8.8,3.9-8.8,8.8v9.9c0,4.8,3.9,8.8,8.8,8.8h22.5
			c4.8,0,8.8-3.9,8.8-8.8L57.5,32.5L57.5,32.5z M45.1,37.7l-10.1,5c-0.4,0.2-1.8-0.1-1.8-0.5V32c0-0.5,1.4-0.7,1.8-0.5l9.6,5.2
			C45.1,36.9,45.5,37.5,45.1,37.7z"/>
	</g>
	<path class="st0" d="M37.5,0C16.8,0,0,16.8,0,37.5s16.8,37.5,37.5,37.5s37.5-16.8,37.5-37.5S58.1,0,37.5,0z M37.5,70.1
		c-18,0-32.7-14.6-32.7-32.7S19.5,4.8,37.5,4.8s32.7,14.6,32.7,32.7S55.5,70.1,37.5,70.1z"/>
</g>
</svg>
