<?xml version="1.0" encoding="utf-8"?>
<!-- Generator: Adobe Illustrator 26.2.1, SVG Export Plug-In . SVG Version: 6.00 Build 0)  -->
<svg version="1.1" id="Ebene_1" xmlns="http://www.w3.org/2000/svg" xmlns:xlink="http://www.w3.org/1999/xlink" x="0px" y="0px"
	 viewBox="0 0 74.9 74.9" style="enable-background:new 0 0 74.9 74.9;" xml:space="preserve">
<style type="text/css">
	.st0{fill:#020203;}
</style>
<g>
	<g>
		<path class="st0" d="M20.8,27.9h7.2v23h-7.2V27.9z M24.4,16.4c2.3,0,4.1,1.9,4.1,4.1s-1.9,4.1-4.1,4.1c-2.3,0-4.1-1.9-4.1-4.1
			S22,16.4,24.4,16.4 M32.4,50.9h7.2V39.5c0-3,0.6-5.9,4.3-5.9c3.7,0,3.7,3.4,3.7,6.1v11.2h7.2V38.2c0-6.2-1.3-11-8.6-11
			c-3.5,0-5.8,1.9-6.8,3.7h-0.1v-3.1h-6.9L32.4,50.9L32.4,50.9z"/>
	</g>
	<path class="st0" d="M37.5,0C16.8,0,0,16.8,0,37.5s16.8,37.5,37.5,37.5s37.5-16.8,37.5-37.5S58.1,0,37.5,0z M37.5,70.1
		c-18,0-32.7-14.7-32.7-32.7c0-18,14.6-32.7,32.7-32.7s32.7,14.6,32.7,32.7C70.1,55.5,55.5,70.1,37.5,70.1z"/>
</g>
</svg>
