<?xml version="1.0" encoding="utf-8"?>
<!-- Generator: Adobe Illustrator 26.2.1, SVG Export Plug-In . SVG Version: 6.00 Build 0)  -->
<svg version="1.1" id="Ebene_1" xmlns="http://www.w3.org/2000/svg" xmlns:xlink="http://www.w3.org/1999/xlink" x="0px" y="0px"
	 viewBox="0 0 74.9 74.9" style="enable-background:new 0 0 74.9 74.9;" xml:space="preserve">
<style type="text/css">
	.st0{fill:#020203;}
</style>
<g>
	<g>
		<g>
			<path class="st0" d="M50,27.1c0,1.2-1,2.2-2.2,2.2s-2.2-1-2.2-2.2c0-1.2,1-2.2,2.2-2.2S50,25.9,50,27.1z M47.2,37.2
				c0,5.2-4.2,9.4-9.4,9.4s-9.4-4.2-9.4-9.4s4.2-9.4,9.4-9.4S47.2,32,47.2,37.2z M43.8,37.2c0-3.3-2.7-6-6-6c-3.3,0-6,2.7-6,6
				c0,3.3,2.7,6,6,6S43.8,40.5,43.8,37.2z M56.8,29.6c0-6.4-5.2-11.5-11.5-11.5H29.6c-6.4,0-11.5,5.1-11.5,11.5v15.7
				c0,6.3,5.1,11.5,11.5,11.5h15.7c6.3,0,11.5-5.2,11.5-11.5L56.8,29.6L56.8,29.6z M53,45.1c0,4.4-3.5,7.9-7.9,7.9H29.8
				c-4.4,0-7.9-3.5-7.9-7.9V29.8c0-4.4,3.5-7.9,7.9-7.9h15.4c4.4,0,7.9,3.5,7.9,7.9L53,45.1L53,45.1z"/>
		</g>
		<path class="st0" d="M37.5,0C16.8,0,0,16.8,0,37.5s16.8,37.5,37.5,37.5s37.5-16.8,37.5-37.5S58.1,0,37.5,0z M37.5,70.1
			c-18,0-32.7-14.7-32.7-32.7S19.5,4.8,37.5,4.8s32.7,14.6,32.7,32.7C70.1,55.5,55.5,70.1,37.5,70.1z"/>
	</g>
</g>
</svg>
