<?xml version="1.0" encoding="utf-8"?>
<!-- Generator: Adobe Illustrator 26.2.1, SVG Export Plug-In . SVG Version: 6.00 Build 0)  -->
<svg version="1.1" id="Ebene_1" xmlns="http://www.w3.org/2000/svg" xmlns:xlink="http://www.w3.org/1999/xlink" x="0px" y="0px"
	 viewBox="0 0 401.2 117.9" style="enable-background:new 0 0 401.2 117.9;" xml:space="preserve">
<style type="text/css">
	.st0{fill:#FFFFFF;}
</style>
<g id="_x39_733uP.tif">
	<g>
		<path class="st0" d="M13.9,62.4c3.9,0,7.8,0,11.7,0c1.5,0,2.2,0.5,2.4,2.1c0.6,5.3,1.3,10.5,1.9,15.8c0.3,2.8,0.1,3-2.7,3
			c-6.6,0-13.1-0.1-19.7,0c-1.8,0-2.9-0.6-3.4-2.2c-1.4-5.4-2.8-10.9-4.1-16.3c-0.5-1.9,0.5-2.5,2.3-2.4
			C6.2,62.4,10.1,62.4,13.9,62.4C13.9,62.4,13.9,62.4,13.9,62.4z"/>
		<path class="st0" d="M104.7,62.4c3.8,0,7.6,0.1,11.4,0c1.8,0,2.4,0.6,2.3,2.3c-0.4,5.9-1.9,11.6-4.2,17c-0.3,0.7-1.6,1.5-2.5,1.5
			c-7.1,0.1-14.3,0-21.4,0.1c-1.4,0-1.8-0.6-1.7-1.8c0.7-5.9,1.4-11.8,2.2-17.7c0.1-0.6,1.4-1.4,2.1-1.4
			C96.9,62.3,100.8,62.4,104.7,62.4C104.7,62.4,104.7,62.4,104.7,62.4z"/>
		<path class="st0" d="M104.6,55.3c-3.9,0-7.8,0-11.7,0c-1.5,0-2-0.5-2.2-2c-0.6-5.4-1.3-10.8-2-16.3c-0.2-1.7,0.2-2.5,2-2.4
			c7,0.1,13.9,0,20.9,0.1c0.9,0,2.4,0.7,2.6,1.3c1.5,5.5,2.8,11,4.1,16.6c0.4,2-0.4,2.8-2.6,2.7C112.1,55.1,108.3,55.3,104.6,55.3
			C104.6,55.3,104.6,55.3,104.6,55.3z"/>
		<path class="st0" d="M13.8,55.3c-3.9,0-7.8-0.1-11.7,0c-1.7,0-2.4-0.6-2-2.2C1.4,47.8,2.6,42.4,4,37c0.4-1.7,1.6-2.4,3.6-2.4
			c6.6,0.1,13.3,0.1,19.9,0c2.3,0,2.7,0.9,2.5,2.8c-0.7,5.3-1.4,10.5-2,15.8c-0.2,1.6-0.9,2.1-2.4,2C21.6,55.2,17.7,55.3,13.8,55.3
			C13.8,55.3,13.8,55.3,13.8,55.3z"/>
		<path class="st0" d="M65.9,0.6c9-3.9,37.6,13.5,43.2,26.3c-1,0.2-1.9,0.5-2.8,0.5c-5.7,0-11.3-0.1-17,0.1c-2.6,0.1-3.8-1-4.5-3.2
			c-1.8-5.5-4.6-10.4-8.1-15C74,5.5,70.4,2.6,65.9,0.6z"/>
		<path class="st0" d="M52.2,117.9c-2.3-0.4-4.7-0.6-6.9-1.2c-14.3-3.7-26-11.4-34.5-23.6c-0.4-0.6-0.5-1.4-0.8-2.2
			c0.7-0.2,1.4-0.5,2.1-0.5c5.9-0.1,11.8,0,17.7-0.1c2,0,3,0.7,3.8,2.7c3.8,9.9,8.8,18.9,18.8,24C52.3,117.4,52.2,117.6,52.2,117.9z
			"/>
		<path class="st0" d="M109,90.9c-3.8,11.6-31.7,28.9-42.9,26.5c9.3-4.7,14.7-12.6,18-21.7c1.6-4.3,3.6-5.5,7.9-5.2
			c4.8,0.4,9.6,0.1,14.4,0.1C107.2,90.5,108.1,90.7,109,90.9z"/>
		<path class="st0" d="M52.2,0.1c-6,3.5-10.5,8.3-13.8,14.1c-1.9,3.4-3.5,7.1-5,10.8c-0.7,1.6-1.6,2.4-3.3,2.4c-6.1,0-12.3,0-18.4,0
			c-0.6,0-1.2-0.3-1.8-0.5c0.2-0.6,0.3-1.4,0.6-1.9C18.4,13.6,28.9,5.8,42.3,2c2.5-0.7,5-1.3,7.4-1.9C50.5-0.1,51.4,0.1,52.2,0.1z"
			/>
		<path class="st0" d="M55.6,73c0,2.8,0,5.6,0,8.4c0,1.5-0.5,2-2.1,2c-4.3-0.1-8.6-0.2-12.9,0c-2.1,0.1-3.2-0.8-3.4-2.7
			c-0.7-5.4-1.4-10.8-2.1-16.2c-0.2-1.5,0.7-2.1,2.1-2.1c5.5,0,10.9,0,16.4,0c1.5,0,2,0.7,2,2.1C55.6,67.3,55.6,70.2,55.6,73z"/>
		<path class="st0" d="M62.9,72.5c0-2.7,0.1-5.3,0-8c-0.1-1.5,0.4-2.1,1.9-2.1c5.6,0,11.3,0,16.9,0c1.7,0,2.2,0.8,1.9,2.3
			c-0.8,5.5-1.6,11-2.3,16.5c-0.2,1.6-1.1,2.1-2.5,2.1c-4.7,0-9.3,0-13.9,0c-1.5,0-2-0.7-2-2.1C62.9,78.3,62.9,75.4,62.9,72.5
			C62.9,72.5,62.9,72.5,62.9,72.5z"/>
		<path class="st0" d="M62.9,44.9c0-2.6,0.1-5.1,0-7.7c-0.1-1.8,0.5-2.6,2.4-2.5c4.5,0.1,8.9,0,13.4,0c1.7,0,2.6,0.7,2.8,2.4
			c0.7,5.2,1.4,10.3,2.2,15.5c0.3,2-0.3,2.8-2.5,2.8c-5.3-0.1-10.6-0.1-15.9,0c-1.7,0-2.4-0.5-2.3-2.3C63,50.3,62.9,47.6,62.9,44.9
			C62.9,44.9,62.9,44.9,62.9,44.9z"/>
		<path class="st0" d="M55.6,45.1c0,2.7,0,5.3,0,8c0,1.5-0.5,2.2-2.1,2.2c-5.4-0.1-10.8,0-16.2,0c-1.7,0-2.3-0.8-2.1-2.3
			c0.6-5.2,1.2-10.5,1.9-15.8c0.2-1.9,1.3-2.8,3.4-2.7c4.2,0.2,8.5,0.1,12.7,0c1.8-0.1,2.4,0.7,2.3,2.3
			C55.6,39.6,55.6,42.4,55.6,45.1C55.6,45.1,55.6,45.1,55.6,45.1z"/>
		<path class="st0" d="M55.6,7c0,1.9,0,3.3,0,4.7c0,4.4,0,8.8,0,13.2c0,1.9-0.5,2.7-2.6,2.6c-3.6-0.1-7.1-0.1-10.7,0
			c-1.2,0-2.4-0.2-1.7-1.8c2.9-6.9,6.1-13.6,12.9-17.7C54,7.6,54.5,7.5,55.6,7z"/>
		<path class="st0" d="M63.3,7.2c4.2,1.5,7,4.5,9.2,7.8c2.1,3.1,3.5,6.6,5.2,9.9c0.9,1.7,0.4,2.5-1.5,2.5c-3.7,0-7.5,0-11.2,0
			c-1.2,0-2.1-0.1-2.1-1.7c0-5.8,0-11.6,0.1-17.4C62.9,8,63.1,7.8,63.3,7.2z"/>
		<path class="st0" d="M62.9,110.7c0-2.3,0-3.9,0-5.6c0-4.2,0-8.3-0.1-12.4c0-1.4,0.2-2.2,1.8-2.2c3.9,0,7.8,0,11.7,0
			c1.4,0,2.1,0.6,1.5,2c-2.6,6.2-5.7,12.2-11.3,16.4C65.7,109.5,64.6,109.9,62.9,110.7z"/>
		<path class="st0" d="M55.1,110.5c-4.8-2.1-7.8-5.8-10.3-9.9c-1.5-2.5-2.6-5.2-3.9-7.8c-0.8-1.6-0.2-2.3,1.5-2.3
			c3.7,0,7.5-0.1,11.2,0.1c0.7,0,1.9,1,1.9,1.6c0.1,5.8,0,11.6,0,17.4C55.5,109.8,55.3,110,55.1,110.5z"/>
	</g>
</g>
<g>
	<path class="st0" d="M214.4,93.8v16.7h-57.7V7.2h55.6v16.6h-35.7v25h33.7v16.2h-33.7v28.7H214.4z"/>
	<path class="st0" d="M229.6,110.5V7.2h19.9v103.2L229.6,110.5L229.6,110.5z"/>
	<path class="st0" d="M316.4,7.2l28.9,103.2h-20.8L317,83.2h-27.7l-7.1,27.2h-20.1L291.4,7.2H316.4z M292.2,68.2h22L308,44.7
		c-1.6-6.4-3.4-14.8-4.7-21.1h-0.4c-1.3,6.4-3.1,14.9-4.6,20.9L292.2,68.2z"/>
	<path class="st0" d="M401.2,110.5h-19.3V26.7h-0.3l-17.5,9.1l-4.3-14.2L384.6,9h16.6L401.2,110.5L401.2,110.5z"/>
</g>
</svg>
